
            <svg id="trend-chart" width="660" height="400" title="Stack Overflow Trends Chart" version="1.1" xmlns="http://www.w3.org/2000/svg"><g></g><g class="chart-area" transform="translate(100, 20)"><g transform="translate(0,300)" fill="none" font-size="10" font-family="sans-serif" text-anchor="middle"><path class="domain" stroke="#000" d="M0.5,6V0.5H410.5V6"></path><g class="tick" opacity="1" transform="translate(14.618969937077603,0)"><line stroke="#000" y2="6" x1="0.5" x2="0.5"></line><text fill="#000" y="9" x="0.5" dy="0.71em" style="font-size: 12px;">2009</text></g><g class="tick" opacity="1" transform="translate(49.49429037520392,0)"><line stroke="#000" y2="6" x1="0.5" x2="0.5"></line><text fill="#000" y="9" x="0.5" dy="0.71em" style="font-size: 12px;">2010</text></g><g class="tick" opacity="1" transform="translate(84.36961081333023,0)"><line stroke="#000" y2="6" x1="0.5" x2="0.5"></line><text fill="#000" y="9" x="0.5" dy="0.71em" style="font-size: 12px;">2011</text></g><g class="tick" opacity="1" transform="translate(119.24493125145653,0)"><line stroke="#000" y2="6" x1="0.5" x2="0.5"></line><text fill="#000" y="9" x="0.5" dy="0.71em" style="font-size: 12px;">2012</text></g><g class="tick" opacity="1" transform="translate(154.215800512701,0)"><line stroke="#000" y2="6" x1="0.5" x2="0.5"></line><text fill="#000" y="9" x="0.5" dy="0.71em" style="font-size: 12px;">2013</text></g><g class="tick" opacity="1" transform="translate(189.0911209508273,0)"><line stroke="#000" y2="6" x1="0.5" x2="0.5"></line><text fill="#000" y="9" x="0.5" dy="0.71em" style="font-size: 12px;">2014</text></g><g class="tick" opacity="1" transform="translate(223.96644138895363,0)"><line stroke="#000" y2="6" x1="0.5" x2="0.5"></line><text fill="#000" y="9" x="0.5" dy="0.71em" style="font-size: 12px;">2015</text></g><g class="tick" opacity="1" transform="translate(258.84176182707995,0)"><line stroke="#000" y2="6" x1="0.5" x2="0.5"></line><text fill="#000" y="9" x="0.5" dy="0.71em" style="font-size: 12px;">2016</text></g><g class="tick" opacity="1" transform="translate(293.8126310883244,0)"><line stroke="#000" y2="6" x1="0.5" x2="0.5"></line><text fill="#000" y="9" x="0.5" dy="0.71em" style="font-size: 12px;">2017</text></g><g class="tick" opacity="1" transform="translate(328.6879515264507,0)"><line stroke="#000" y2="6" x1="0.5" x2="0.5"></line><text fill="#000" y="9" x="0.5" dy="0.71em" style="font-size: 12px;">2018</text></g><g class="tick" opacity="1" transform="translate(363.56327196457704,0)"><line stroke="#000" y2="6" x1="0.5" x2="0.5"></line><text fill="#000" y="9" x="0.5" dy="0.71em" style="font-size: 12px;">2019</text></g><g class="tick" opacity="1" transform="translate(398.4385924027033,0)"><line stroke="#000" y2="6" x1="0.5" x2="0.5"></line><text fill="#000" y="9" x="0.5" dy="0.71em" style="font-size: 12px;">2020</text></g></g><g class="grid-lines" transform="translate(0,300)" fill="none" font-size="10" font-family="sans-serif" text-anchor="middle"><path class="domain" stroke="#000" d="M0.5,-300V0.5H410.5V-300"></path><g class="tick" opacity="1" transform="translate(14.618969937077603,0)"><line stroke="#000" y2="-300" x1="0.5" x2="0.5" style="stroke: #ccc; fill: none;"></line></g><g class="tick" opacity="1" transform="translate(49.49429037520392,0)"><line stroke="#000" y2="-300" x1="0.5" x2="0.5" style="stroke: #ccc; fill: none;"></line></g><g class="tick" opacity="1" transform="translate(84.36961081333023,0)"><line stroke="#000" y2="-300" x1="0.5" x2="0.5" style="stroke: #ccc; fill: none;"></line></g><g class="tick" opacity="1" transform="translate(119.24493125145653,0)"><line stroke="#000" y2="-300" x1="0.5" x2="0.5" style="stroke: #ccc; fill: none;"></line></g><g class="tick" opacity="1" transform="translate(154.215800512701,0)"><line stroke="#000" y2="-300" x1="0.5" x2="0.5" style="stroke: #ccc; fill: none;"></line></g><g class="tick" opacity="1" transform="translate(189.0911209508273,0)"><line stroke="#000" y2="-300" x1="0.5" x2="0.5" style="stroke: #ccc; fill: none;"></line></g><g class="tick" opacity="1" transform="translate(223.96644138895363,0)"><line stroke="#000" y2="-300" x1="0.5" x2="0.5" style="stroke: #ccc; fill: none;"></line></g><g class="tick" opacity="1" transform="translate(258.84176182707995,0)"><line stroke="#000" y2="-300" x1="0.5" x2="0.5" style="stroke: #ccc; fill: none;"></line></g><g class="tick" opacity="1" transform="translate(293.8126310883244,0)"><line stroke="#000" y2="-300" x1="0.5" x2="0.5" style="stroke: #ccc; fill: none;"></line></g><g class="tick" opacity="1" transform="translate(328.6879515264507,0)"><line stroke="#000" y2="-300" x1="0.5" x2="0.5" style="stroke: #ccc; fill: none;"></line></g><g class="tick" opacity="1" transform="translate(363.56327196457704,0)"><line stroke="#000" y2="-300" x1="0.5" x2="0.5" style="stroke: #ccc; fill: none;"></line></g><g class="tick" opacity="1" transform="translate(398.4385924027033,0)"><line stroke="#000" y2="-300" x1="0.5" x2="0.5" style="stroke: #ccc; fill: none;"></line></g></g><text x="205" y="360" class="axis-label x-axis-label" style="text-anchor: middle; font-weight: bold;">Year</text><g fill="none" font-size="10" font-family="sans-serif" text-anchor="end"><path class="domain" stroke="#000" d="M-6,300.5H0.5V0.5H-6"></path><g class="tick" opacity="1" transform="translate(0,300)"><line stroke="#000" x2="-6" y1="0.5" y2="0.5"></line><text fill="#000" x="-9" y="0.5" dy="0.32em" style="font-size: 12px;">0.00%</text></g><g class="tick" opacity="1" transform="translate(0,262.5)"><line stroke="#000" x2="-6" y1="0.5" y2="0.5"></line><text fill="#000" x="-9" y="0.5" dy="0.32em" style="font-size: 12px;">2.00%</text></g><g class="tick" opacity="1" transform="translate(0,225)"><line stroke="#000" x2="-6" y1="0.5" y2="0.5"></line><text fill="#000" x="-9" y="0.5" dy="0.32em" style="font-size: 12px;">4.00%</text></g><g class="tick" opacity="1" transform="translate(0,187.5)"><line stroke="#000" x2="-6" y1="0.5" y2="0.5"></line><text fill="#000" x="-9" y="0.5" dy="0.32em" style="font-size: 12px;">6.00%</text></g><g class="tick" opacity="1" transform="translate(0,150)"><line stroke="#000" x2="-6" y1="0.5" y2="0.5"></line><text fill="#000" x="-9" y="0.5" dy="0.32em" style="font-size: 12px;">8.00%</text></g><g class="tick" opacity="1" transform="translate(0,112.5)"><line stroke="#000" x2="-6" y1="0.5" y2="0.5"></line><text fill="#000" x="-9" y="0.5" dy="0.32em" style="font-size: 12px;">10.00%</text></g><g class="tick" opacity="1" transform="translate(0,75)"><line stroke="#000" x2="-6" y1="0.5" y2="0.5"></line><text fill="#000" x="-9" y="0.5" dy="0.32em" style="font-size: 12px;">12.00%</text></g><g class="tick" opacity="1" transform="translate(0,37.49999999999994)"><line stroke="#000" x2="-6" y1="0.5" y2="0.5"></line><text fill="#000" x="-9" y="0.5" dy="0.32em" style="font-size: 12px;">14.00%</text></g><g class="tick" opacity="1" transform="translate(0,0)"><line stroke="#000" x2="-6" y1="0.5" y2="0.5"></line><text fill="#000" x="-9" y="0.5" dy="0.32em" style="font-size: 12px;">16.00%</text></g></g><g class="grid-lines" fill="none" font-size="10" font-family="sans-serif" text-anchor="end"><path class="domain" stroke="#000" d="M410,300.5H0.5V0.5H410"></path><g class="tick" opacity="1" transform="translate(0,300)"><line stroke="#000" x2="410" y1="0.5" y2="0.5" style="stroke: #ccc; fill: none;"></line></g><g class="tick" opacity="1" transform="translate(0,262.5)"><line stroke="#000" x2="410" y1="0.5" y2="0.5" style="stroke: #ccc; fill: none;"></line></g><g class="tick" opacity="1" transform="translate(0,225)"><line stroke="#000" x2="410" y1="0.5" y2="0.5" style="stroke: #ccc; fill: none;"></line></g><g class="tick" opacity="1" transform="translate(0,187.5)"><line stroke="#000" x2="410" y1="0.5" y2="0.5" style="stroke: #ccc; fill: none;"></line></g><g class="tick" opacity="1" transform="translate(0,150)"><line stroke="#000" x2="410" y1="0.5" y2="0.5" style="stroke: #ccc; fill: none;"></line></g><g class="tick" opacity="1" transform="translate(0,112.5)"><line stroke="#000" x2="410" y1="0.5" y2="0.5" style="stroke: #ccc; fill: none;"></line></g><g class="tick" opacity="1" transform="translate(0,75)"><line stroke="#000" x2="410" y1="0.5" y2="0.5" style="stroke: #ccc; fill: none;"></line></g><g class="tick" opacity="1" transform="translate(0,37.49999999999994)"><line stroke="#000" x2="410" y1="0.5" y2="0.5" style="stroke: #ccc; fill: none;"></line></g><g class="tick" opacity="1" transform="translate(0,0)"><line stroke="#000" x2="410" y1="0.5" y2="0.5" style="stroke: #ccc; fill: none;"></line></g></g><g class="lines"><path class="line" d="M2.9620135166627826,300L5.828478210207411,300L8.790491726870194,300L11.656956420414822,300L14.618969937077603,300L17.580983453740387,300L20.256350501048708,300L23.21836401771149,300L26.08482871125612,300L29.0468422279189,300L31.913306921463526,300L34.875320438126316,300L37.837333954789095,300L40.70379864833372,300L43.66581216499651,296.7557151845813L46.53227685854113,299.44932450474374L49.49429037520392,299.3697478991625L52.4563038918667,299.7049965161625L55.13167093917502,299.7109325316562L58.0936844558378,299.6228805889125L60.96014914938243,299.3828534918438L63.92216266604521,299.4923285198625L66.78862735958984,299.75191439394376L69.75064087625263,299.6150626954313L72.7126543929154,299.7226240179L75.57911908646004,299.6158634601563L78.54113260312282,299.56704958726874L81.40759729666745,299.5122832370063L84.36961081333023,299.64692368531877L87.33162432999302,299.6368873987875L90.00699137730133,299.94408048435L92.96900489396411,299.86247760350625L95.83546958750874,299.30685996324377L98.79748310417152,299.35569615136876L101.66394779771615,299.5147515528L104.62596131437893,299.299837562325L107.58797483104172,299.52182442375L110.45443952458633,299.2599828316125L113.41645304124913,298.8631874845125L116.28291773479377,299.06016849493125L119.24493125145653,299.402670868425L122.20694476811931,299.5309171024688L124.9778606385458,299.3410525213875L127.93987415520859,298.99786210584375L130.8063388487532,299.03805402511875L133.76835236541598,298.96811080198125L136.6348170589606,298.9945103794875L139.5968305756234,299.0428586621438L142.5588440922862,298.15098576165L145.4253087858308,298.73214118340627L148.3873223024936,298.67835139588124L151.2537869960382,298.429741347375L154.215800512701,298.79596780348123L157.1778140293638,298.57046507536876L159.85318107667212,298.6307336680125L162.8151945933349,298.63498969145627L165.68165928687952,298.3804405201875L168.6436728035423,297.91490275865624L171.51013749708693,297.87805913143126L174.4721510137497,297.6974128762875L177.4341645304125,297.31898834986873L180.30062922395712,297.844921061775L183.2626427406199,297.770069375625L186.12910743416452,297.2836092985125L189.0911209508273,296.995510122075L192.0531344674901,297.95746207190626L194.7285015147984,297.7033868589375L197.69051503146122,296.71145413985624L200.55697972500582,297.0290810523375L203.51899324166862,296.68693363438126L206.38545793521322,295.20519781905L209.347471451876,295.36341655524376L212.3094849685388,295.58078151024375L215.17594966208344,295.850619409725L218.13796317874622,296.1993091288688L221.00442787229085,295.76722214004377L223.96644138895363,294.69049742131875L226.9284549056164,295.71395405596877L229.6038219529247,295.35869043159374L232.56583546958754,296.12672893839374L235.4323001631321,295.98921815413127L238.39431367979495,295.75488321924377L241.26077837333958,295.4956804730812L244.22279189000236,295.3431223414125L247.1848054066651,295.49156732593127L250.05127010020976,295.66832349646876L253.0132836168725,295.39504072644377L255.87974831041717,295.35183482503123L258.84176182707995,294.8442463452375L261.8037753437427,294.57942180500623L264.5746912141692,294.4402776808875L267.53670473083196,294.2250229849875L270.4031694243766,294.21971835470623L273.3651829410394,294.3851558110875L276.231647634584,294.26566390396874L279.1936611512468,294.01900626898123L282.1556746679096,294.34614775400627L285.0221393614542,294.2643438036375L287.98415287811696,294.85185993613123L290.8506175716616,294.1952625276937L293.8126310883244,293.9871326775375L296.7746446049872,293.99743085731876L299.4500116522955,293.8363042305375L302.4120251689583,294.61115807270625L305.2784898625029,294.0304346653125L308.24050337916566,293.90147493958125L311.1069680727103,293.08986120913124L314.0689815893731,293.4570013277625L317.0309951060359,293.6664451992375L319.8974597995805,293.1313803817313L322.85947331624334,292.68254535705L325.72593800978797,293.1192184124625L328.6879515264507,293.5700961580875L331.6499650431135,292.7971899174L334.3253320904218,293.3028690960375L337.2873456070846,292.7228708003625L340.15381030062923,292.83976714396874L343.115823817292,291.6968746938563L345.9822885108366,291.7512088745625L348.9443020274994,291.52500619831875L351.9063155441622,291.09900106655624L354.77278023770685,290.6199455847187L357.7347937543696,290.9172336057375L360.60125844791423,290.583830970525L363.56327196457704,291.583836929175L366.5252854812398,291.817283544L369.2006525285481,291.468879719775L372.1626660452109,291.95599997385L375.02913073875555,291.49569645770623L377.9911442554183,293.077976714625L380.857608948963,292.6309392641813L383.81962246562574,291.8662052107125L386.7816359822885,292.02878638569376L389.6481006758331,292.8183916567125L392.6101141924959,292.8612776693063L395.47657888604056,291.91159273408124L398.4385924027033,292.38395227425L401.4006059193661,292.089120404475L404.1715217897926,292.7253342739125L407.13353530645537,292.47144048129377L410,292.78137736441874" data-legend="go" style="stroke: rgb(31, 119, 180); fill: none;"></path><path class="line" d="M2.9620135166627826,226.9620526089L5.828478210207411,233.80978749915L8.790491726870194,232.53999840802499L11.656956420414822,230.92105263159374L14.618969937077603,224.804563365975L17.580983453740387,232.2133593481125L20.256350501048708,229.26447381399376L23.21836401771149,231.90201456541877L26.08482871125612,226.64606236063125L29.0468422279189,230.07226980729376L31.913306921463526,232.18743191510623L34.875320438126316,234.166923551175L37.837333954789095,233.197359978L40.70379864833372,226.05531194495626L43.66581216499651,223.36606019296875L46.53227685854113,220.4524216372125L49.49429037520392,218.10924369748125L52.4563038918667,221.36049987639376L55.13167093917502,225.13152569810626L58.0936844558378,231.4774030048875L60.96014914938243,227.0315010939375L63.92216266604521,225.27075812274376L66.78862735958984,219.49622082928124L69.75064087625263,226.12164808440002L72.7126543929154,230.6251849173375L75.57911908646004,221.074715541975L78.54113260312282,229.2937857184125L81.40759729666745,232.69508670521247L84.36961081333023,231.479656527375L87.33162432999302,231.5305801329L90.00699137730133,230.02604606775L92.96900489396411,234.22500235753125L95.83546958750874,233.96436136201874L98.79748310417152,234.16730675938123L101.66394779771615,231.52397873866875L104.62596131437893,232.83691816501874L107.58797483104172,235.24399215301875L110.45443952458633,232.78794068023126L113.41645304124913,233.20365249825L116.28291773479377,234.44675252068123L119.24493125145653,232.00134318335625L122.20694476811931,231.92245303119375L124.9778606385458,229.1561359693875L127.93987415520859,228.35440243535623L130.8063388487532,228.73235038256252L133.76835236541598,224.17047573915L136.6348170589606,224.07230352380626L139.5968305756234,221.9398064447625L142.5588440922862,225.18603927875625L145.4253087858308,222.93677945450625L148.3873223024936,218.62965372808125L151.2537869960382,219.9168087156375L154.215800512701,221.41603723201877L157.1778140293638,217.29468457374375L159.85318107667212,217.40197346859375L162.8151945933349,213.03246322117502L165.68165928687952,211.79024305389373L168.6436728035423,209.701072877325L171.51013749708693,208.31093506861873L174.4721510137497,212.27032886968124L177.4341645304125,209.62615159066877L180.30062922395712,203.18409524636252L183.2626427406199,198.87795554298748L186.12910743416452,203.87372405092498L189.0911209508273,202.18055232375002L192.0531344674901,200.97178308579373L194.7285015147984,196.72445926019998L197.69051503146122,196.04541142081877L200.55697972500582,201.29121796359377L203.51899324166862,196.9728389911125L206.38545793521322,194.60940316331252L209.347471451876,195.23611085671877L212.3094849685388,200.70286617885L215.17594966208344,195.70212286501874L218.13796317874622,191.88271382821875L221.00442787229085,190.490439469275L223.96644138895363,190.0368125512125L226.9284549056164,185.83938042825L229.6038219529247,184.65009737844377L232.56583546958754,186.15951140651248L235.4323001631321,186.04720568694376L238.39431367979495,181.41706803935625L241.26077837333958,181.0108924969125L244.22279189000236,183.23579358451875L247.1848054066651,183.5533222704L250.05127010020976,173.4423466310625L253.0132836168725,169.67754019130624L255.87974831041717,172.4918820777375L258.84176182707995,171.22049994180003L261.8037753437427,167.065820354175L264.5746912141692,168.04302757873126L267.53670473083196,168.66955255901252L270.4031694243766,169.02339438832502L273.3651829410394,167.49376810250624L276.231647634584,162.83425423786875L279.1936611512468,165.541861418175L282.1556746679096,163.7025619063875L285.0221393614542,154.2088740178875L287.98415287811696,146.686665671025L290.8506175716616,147.76232605175625L293.8126310883244,147.04034495133752L296.7746446049872,140.35536933583126L299.4500116522955,139.09756499671872L302.4120251689583,134.182163989875L305.2784898625029,135.8673070177875L308.24050337916566,129.77068416418123L311.1069680727103,121.79613200255628L314.0689815893731,124.23271371669372L317.0309951060359,119.58682868977499L319.8974597995805,111.07412339103752L322.85947331624334,109.51157386719376L325.72593800978797,105.1051071844125L328.6879515264507,107.91545500796252L331.6499650431135,97.70463874126872L334.3253320904218,103.60909440515624L337.2873456070846,101.90166343239378L340.15381030062923,100.9906304312625L343.115823817292,93.47506613109374L345.9822885108366,86.76400872286874L348.9443020274994,86.89741323959998L351.9063155441622,88.75485350604376L354.77278023770685,84.44681971488751L357.7347937543696,70.77965862888749L360.60125844791423,73.12873227881252L363.56327196457704,83.40051683066247L366.5252854812398,71.527234550625L369.2006525285481,64.36578327371251L372.1626660452109,54.057151639218745L375.02913073875555,62.24006339270625L377.9911442554183,63.13472262988128L380.857608948963,59.259601076831274L383.81962246562574,57.99288817398747L386.7816359822885,72.19858626440626L389.6481006758331,52.98215759945623L392.6101141924959,44.69077776435L395.47657888604056,49.34464411008753L398.4385924027033,47.417712687656234L401.4006059193661,45.758030205712544L404.1715217897926,31.21813576170001L407.13353530645537,22.78677812578121L410,12.368063538525007" data-legend="python" style="stroke: rgb(255, 127, 14); fill: none;"></path><path class="line" d="M2.9620135166627826,299.191461837L5.828478210207411,299.09150688725623L8.790491726870194,299.25376104435L11.656956420414822,299.53007518798125L14.618969937077603,298.56997584849375L17.580983453740387,298.7088258923625L20.256350501048708,298.4280994181062L23.21836401771149,297.6059301995812L26.08482871125612,299.1197527483312L29.0468422279189,295.784261241975L31.913306921463526,296.556848952675L34.875320438126316,295.83847102344373L37.837333954789095,296.390594921625L40.70379864833372,294.79629218473127L43.66581216499651,295.33019609900623L46.53227685854113,295.7948416724625L49.49429037520392,295.58823529411876L52.4563038918667,295.1535141939L55.13167093917502,295.8446551425188L58.0936844558378,293.85295359924373L60.96014914938243,293.937443125725L63.92216266604521,294.14485559566873L66.78862735958984,294.2630203595625L69.75064087625263,294.96620447870623L72.7126543929154,293.06560044710625L75.57911908646004,293.5287767516813L78.54113260312282,294.290466431925L81.40759729666745,293.9035404624375L84.36961081333023,294.0918563340375L87.33162432999302,293.804391241725L90.00699137730133,294.42668827231876L92.96900489396411,294.6759186496125L95.83546958750874,293.8741407561375L98.79748310417152,293.68961230595625L101.66394779771615,292.06805422839375L104.62596131437893,292.403237551125L107.58797483104172,292.2756253065375L110.45443952458633,291.3602995589625L113.41645304124913,292.1628834158625L116.28291773479377,293.2585163193375L119.24493125145653,294.20429302063127L122.20694476811931,294.15916134031875L124.9778606385458,293.55072680505L127.93987415520859,294.11788627333124L130.8063388487532,294.1167941826L133.76835236541598,293.6080196899875L136.6348170589606,293.5304680995375L139.5968305756234,293.8583430820125L142.5588440922862,292.39059524985L145.4253087858308,293.2715611317187L148.3873223024936,292.95967955105624L151.2537869960382,293.3159786556L154.215800512701,293.1453612573562L157.1778140293638,292.80345238794376L159.85318107667212,292.7870931015L162.8151945933349,292.497903344175L165.68165928687952,292.5657721099875L168.6436728035423,291.8254710424313L171.51013749708693,292.5519875512875L174.4721510137497,292.38714017945625L177.4341645304125,291.2216664957375L180.30062922395712,291.44067704720624L183.2626427406199,290.98470904715623L186.12910743416452,290.74163502575624L189.0911209508273,292.35491189475L192.0531344674901,291.7302122911125L194.7285015147984,291.6151104535875L197.69051503146122,291.09592553656876L200.55697972500582,290.94930763441874L203.51899324166862,289.15200839311876L206.38545793521322,290.5476917357625L209.347471451876,290.1315186928875L212.3094849685388,290.38369037814374L215.17594966208344,290.7911919014625L218.13796317874622,289.76737073154374L221.00442787229085,289.62909128330625L223.96644138895363,289.855461030525L226.9284549056164,290.1443266443375L229.6038219529247,289.985063361975L232.56583546958754,289.7769418527375L235.4323001631321,289.3147099813125L238.39431367979495,288.0856392238125L241.26077837333958,288.5467088952L244.22279189000236,288.0829567266563L247.1848054066651,287.3636887022625L250.05127010020976,288.87294287439374L253.0132836168725,288.5720964816563L255.87974831041717,287.93222844241876L258.84176182707995,289.22073278229374L261.8037753437427,288.558779603175L264.5746912141692,287.8620516091875L267.53670473083196,287.923306772925L270.4031694243766,288.09122697174377L273.3651829410394,287.5941602893312L276.231647634584,287.3375626726875L279.1936611512468,286.55314777485L282.1556746679096,285.9973659355125L285.0221393614542,286.2042941017875L287.98415287811696,285.55720538566874L290.8506175716616,286.27336629795L293.8126310883244,287.4829831226813L296.7746446049872,288.1349575833L299.4500116522955,287.81311824305624L302.4120251689583,288.01775147930624L305.2784898625029,288.1215767746875L308.24050337916566,287.5911955368L311.1069680727103,286.83082972074374L314.0689815893731,287.5097879004563L317.0309951060359,286.94868578739374L319.8974597995805,288.01597869508123L322.85947331624334,287.7111448744312L325.72593800978797,288.64021907716875L328.6879515264507,287.7525641106188L331.6499650431135,287.7404225648625L334.3253320904218,287.31587442170627L337.2873456070846,286.7477199878625L340.15381030062923,287.44985957675624L343.115823817292,288.2923483883625L345.9822885108366,288.93050156443127L348.9443020274994,289.84431122499376L351.9063155441622,289.0077237841125L354.77278023770685,289.64432588990627L357.7347937543696,289.83535284410624L360.60125844791423,289.08807038338125L363.56327196457704,290.19586400895L366.5252854812398,290.54355881263126L369.2006525285481,290.41709776741874L372.1626660452109,289.58939630761876L375.02913073875555,289.9042478416125L377.9911442554183,290.0327756579625L380.857608948963,290.0645467246875L383.81962246562574,290.7737831368125L386.7816359822885,290.7259134324L389.6481006758331,291.6811281654L392.6101141924959,291.8352888320625L395.47657888604056,292.1674007952L398.4385924027033,292.22874897271873L401.4006059193661,291.614025680175L404.1715217897926,292.0740212268L407.13353530645537,292.1588066965688L410,292.2092172640875" data-legend="scala" style="stroke: rgb(44, 160, 44); fill: none;"></path><path class="line" d="M2.9620135166627826,297.574385511L5.828478210207411,298.83193742645625L8.790491726870194,296.7165485950875L11.656956420414822,296.0839598997562L14.618969937077603,297.37828905555L17.580983453740387,299.0316194192625L20.256350501048708,298.33563467799377L23.21836401771149,297.6059301995812L26.08482871125612,296.55236493095623L29.0468422279189,297.0556745182125L31.913306921463526,298.0741697532L34.875320438126316,297.2256473489625L37.837333954789095,297.24997708314373L40.70379864833372,297.18999777976876L43.66581216499651,295.9692218959875L46.53227685854113,296.2954557590813L49.49429037520392,297.43697478991874L52.4563038918667,296.1228113551125L55.13167093917502,296.67572411401875L58.0936844558378,296.8699088879625L60.96014914938243,295.7162771786625L63.92216266604521,296.31092057761873L66.78862735958984,296.09265170435623L69.75064087625263,297.0981649347938L72.7126543929154,296.57902955390625L75.57911908646004,295.6858511677875L78.54113260312282,295.77873347574376L81.40759729666745,295.82731213873126L84.36961081333023,296.82231316771873L87.33162432999302,296.18731768723126L90.00699137730133,295.56371842411875L92.96900489396411,294.7545028761937L95.83546958750874,294.061475901225L98.79748310417152,294.6939683053125L101.66394779771615,295.3528129479375L104.62596131437893,296.02657816614374L107.58797483104172,295.0159391858812L110.45443952458633,293.96886007756876L113.41645304124913,294.436508446875L116.28291773479377,293.99953731373125L119.24493125145653,294.30115720411874L122.20694476811931,294.204556459425L124.9778606385458,294.8826419214L127.93987415520859,294.49550345085L130.8063388487532,295.3854475697625L133.76835236541598,295.528480141875L136.6348170589606,295.50175696081874L139.5968305756234,296.25119642668125L142.5588440922862,295.363241217675L145.4253087858308,294.7402688697563L148.3873223024936,295.0311095748375L151.2537869960382,295.3448084191875L154.215800512701,295.79184786755627L157.1778140293638,295.35706605675L159.85318107667212,295.407027894225L162.8151945933349,295.4354055282L165.68165928687952,296.063570708775L168.6436728035423,296.1852198198L171.51013749708693,296.7958692884437L174.4721510137497,296.41942193679375L177.4341645304125,295.859703527625L180.30062922395712,294.7139573213062L183.2626427406199,294.80744726038125L186.12910743416452,294.9407223184875L189.0911209508273,295.2404120745563L192.0531344674901,295.2872173659L194.7285015147984,295.0645333282125L197.69051503146122,295.163337521475L200.55697972500582,294.1748767776L203.51899324166862,295.1224300728375L206.38545793521322,295.089024197925L209.347471451876,295.05431099225626L212.3094849685388,295.34403766258123L215.17594966208344,294.1496983844625L218.13796317874622,293.4106365370125L221.00442787229085,293.5000932577875L223.96644138895363,294.34029618740624L226.9284549056164,295.33446040468124L229.6038219529247,294.5570996532563L232.56583546958754,295.20546497745L235.4323001631321,295.17895919536875L238.39431367979495,296.105305595025L241.26077837333958,295.87104043365L244.22279189000236,295.8928205950875L247.1848054066651,295.0682403142875L250.05127010020976,294.4869571773375L253.0132836168725,295.17324222931876L255.87974831041717,295.30819008159375L258.84176182707995,295.8109501555125L261.8037753437427,295.61953275016873L264.5746912141692,295.11305080185L267.53670473083196,294.6176831137125L270.4031694243766,294.84649588250625L273.3651829410394,296.440863792825L276.231647634584,296.42936321158123L279.1936611512468,295.8257647918875L282.1556746679096,295.71011210908125L285.0221393614542,295.49110704264376L287.98415287811696,295.573461158475L290.8506175716616,295.47486397449376L293.8126310883244,295.450299326175L296.7746446049872,295.45227257053125L299.4500116522955,295.9252163226187L302.4120251689583,296.0481825866625L305.2784898625029,295.6897714702125L308.24050337916566,296.34723759403124L311.1069680727103,296.48192022046874L314.0689815893731,296.22314710790624L317.0309951060359,295.4710426149L319.8974597995805,295.30625832225L322.85947331624334,294.77165072840626L325.72593800978797,295.1315224616437L328.6879515264507,295.8900431486625L331.6499650431135,295.8805846445438L334.3253320904218,295.1710736385937L337.2873456070846,295.51282448713124L340.15381030062923,296.2676581490625L343.115823817292,296.2280787694875L345.9822885108366,296.717075945775L348.9443020274994,296.74588845590625L351.9063155441622,296.13113702746875L354.77278023770685,295.73313314191876L357.7347937543696,295.68505696228124L360.60125844791423,295.38451018828124L363.56327196457704,296.31556279359376L366.5252854812398,296.6291325291375L369.2006525285481,296.4823736926875L372.1626660452109,295.9412134014375L375.02913073875555,296.39437422915L377.9911442554183,297.4684473143625L380.857608948963,297.5933414359875L383.81962246562574,297.4708054158937L386.7816359822885,296.87310491206875L389.6481006758331,296.53555843850626L392.6101141924959,296.29564030344375L395.47657888604056,296.6623138692L398.4385924027033,297.30611412320627L401.4006059193661,297.7129160946L404.1715217897926,297.47490941739375L407.13353530645537,297.760866136425L410,297.4683875013188" data-legend="haskell" style="stroke: rgb(214, 39, 40); fill: none;"></path><path class="line" d="M2.9620135166627826,294.47498921949375L5.828478210207411,297.14473593135L8.790491726870194,297.1642919684812L11.656956420414822,297.18045112783125L14.618969937077603,297.37828905555L17.580983453740387,297.6328474693125L20.256350501048708,298.33563467799377L23.21836401771149,298.3152842145187L26.08482871125612,299.41316849889375L29.0468422279189,297.65792291221874L31.913306921463526,298.19088673785L34.875320438126316,298.61282367448126L37.837333954789095,298.2812356769812L40.70379864833372,298.49092473358127L43.66581216499651,298.32870176175L46.53227685854113,298.19778928820625L49.49429037520392,298.5714285714375L52.4563038918667,298.5671259355875L55.13167093917502,298.95213042725624L58.0936844558378,299.0949134133937L60.96014914938243,299.1287343414375L63.92216266604521,299.01850180505625L66.78862735958984,298.666539867375L69.75064087625263,298.4306402198437L72.7126543929154,298.274105000175L75.57911908646004,298.2566110883625L78.54113260312282,298.07878254345L81.40759729666745,298.536849711L84.36961081333023,298.94077105591873L87.33162432999302,298.63832774544375L90.00699137730133,298.8443300096437L92.96900489396411,298.93911294125627L95.83546958750874,299.04459076014376L98.79748310417152,299.10934467982497L101.66394779771615,299.4960881509875L104.62596131437893,299.47487817174374L107.58797483104172,299.0252574791625L110.45443952458633,299.16748068556876L113.41645304124913,298.94930964478124L116.28291773479377,298.716768521925L119.24493125145653,299.0313581650125L122.20694476811931,298.849990315725L124.9778606385458,299.1307501346063L127.93987415520859,299.1576232194L130.8063388487532,299.247172715325L133.76835236541598,299.28341027915627L136.6348170589606,299.21942253144374L139.5968305756234,299.4682548123L142.5588440922862,299.118162440175L145.4253087858308,299.17149819905626L148.3873223024936,298.93251458896873L151.2537869960382,299.2357148151L154.215800512701,299.511234454875L157.1778140293638,299.27912341408125L159.85318107667212,299.37466576965L162.8151945933349,299.1045532375875L165.68165928687952,299.23520802343126L168.6436728035423,299.32471282524375L171.51013749708693,299.3952468524625L174.4721510137497,299.42710750989374L177.4341645304125,299.3325751588313L180.30062922395712,299.115604398L183.2626427406199,298.90627212234375L186.12910743416452,299.23035596791874L189.0911209508273,299.4645463584L192.0531344674901,299.6213832133312L194.7285015147984,299.45061411136874L197.69051503146122,299.499987179175L200.55697972500582,299.5013100337875L203.51899324166862,299.49383708304373L206.38545793521322,299.61979542178125L209.347471451876,299.6336526660937L212.3094849685388,299.41377713911874L215.17594966208344,299.4366376222125L218.13796317874622,299.1004281961875L221.00442787229085,299.3367442099875L223.96644138895363,299.48034655614373L226.9284549056164,299.4642442570125L229.6038219529247,299.4161252355375L232.56583546958754,299.4650725388062L235.4323001631321,299.564485809675L238.39431367979495,299.70965003150627L241.26077837333958,299.6342646538125L244.22279189000236,299.6784783799313L247.1848054066651,299.6507552154L250.05127010020976,299.3638796743125L253.0132836168725,299.34516634185L255.87974831041717,299.46535189303125L258.84176182707995,299.41789878091873L261.8037753437427,299.3699327928375L264.5746912141692,299.4486998036625L267.53670473083196,299.48283787925624L270.4031694243766,299.512506367275L273.3651829410394,299.71363271896877L276.231647634584,299.48838637063125L279.1936611512468,299.6365715614875L282.1556746679096,299.6150100610875L285.0221393614542,299.3435740563375L287.98415287811696,299.28916894516874L290.8506175716616,299.325301055325L293.8126310883244,299.4980377191L296.7746446049872,299.4180633147187L299.4500116522955,299.578470654075L302.4120251689583,299.408284023675L305.2784898625029,299.68634487225L308.24050337916566,299.671780769325L311.1069680727103,299.68494807945L314.0689815893731,299.81913662206875L317.0309951060359,299.70893590070625L319.8974597995805,299.47847314693126L322.85947331624334,299.63133434625L325.72593800978797,299.55859136986874L328.6879515264507,299.505392012175L331.6499650431135,299.666993369475L334.3253320904218,299.5957686077625L337.2873456070846,299.68613021025L340.15381030062923,299.74065298318123L343.115823817292,299.69383756246873L345.9822885108366,299.7629657722687L348.9443020274994,299.78544319490624L351.9063155441622,299.73859033970626L354.77278023770685,299.518067379675L357.7347937543696,299.69807978745L360.60125844791423,299.5441491544125L363.56327196457704,299.65931573776874L366.5252854812398,299.536827370425L369.2006525285481,299.7312112788562L372.1626660452109,299.6321341451625L375.02913073875555,299.5897046536688L377.9911442554183,299.60864886020624L380.857608948963,299.78702136601873L383.81962246562574,299.72689448154375L386.7816359822885,299.7275811097688L389.6481006758331,299.4629589068812L392.6101141924959,299.56800470011876L395.47657888604056,299.59801590395625L398.4385924027033,299.6563355466L401.4006059193661,299.3812719869438L404.1715217897926,299.7494949819L407.13353530645537,299.58597147429373L410,299.6708119970813" data-legend="lisp" style="stroke: rgb(148, 103, 189); fill: none;"></path><path class="line" d="M2.9620135166627826,146.78201811125626L5.828478210207411,150.48799058628748L8.790491726870194,157.0206160948875L11.656956420414822,169.674185463675L14.618969937077603,162.9560188127625L17.580983453740387,170.02180649604375L20.256350501048708,166.85077423809375L23.21836401771149,164.070036886425L26.08482871125612,166.64254137163124L29.0468422279189,158.471627409L31.913306921463526,167.8763733698625L34.875320438126316,173.24676325524376L37.837333954789095,170.2905857548875L40.70379864833372,169.64711922736876L43.66581216499651,164.18244022651876L46.53227685854113,165.33481070113126L49.49429037520392,143.36134453783126L52.4563038918667,149.00035962329997L55.13167093917502,139.31462103254998L58.0936844558378,153.3382610269875L60.96014914938243,148.36347267131248L63.92216266604521,154.772111913375L66.78862735958984,159.76961116717501L69.75064087625263,160.475032374225L72.7126543929154,154.43924849600623L75.57911908646004,151.2800611466625L78.54113260312282,148.35911793569997L81.40759729666745,146.04407514451873L84.36961081333023,145.87041942328125L87.33162432999302,143.88427601400002L90.00699137730133,141.747770675325L92.96900489396411,144.54075377990625L95.83546958750874,139.28517904244998L98.79748310417152,149.70665224773754L101.66394779771615,147.4640169613125L104.62596131437893,147.57463731586873L107.58797483104172,146.41368317803122L110.45443952458633,141.266317378575L113.41645304124913,133.4741909110125L116.28291773479377,133.1076131171625L119.24493125145653,135.84749702951248L122.20694476811931,133.70254696882498L124.9778606385458,125.47705928098125L127.93987415520859,124.36444124278123L130.8063388487532,129.5264437554375L133.76835236541598,140.1431650717125L136.6348170589606,137.53404552575623L139.5968305756234,136.83398915240625L142.5588440922862,134.52744885343125L145.4253087858308,130.29521443970626L148.3873223024936,126.73695126166874L151.2537869960382,126.95193804195L154.215800512701,136.03704127565624L157.1778140293638,131.4126248704875L159.85318107667212,127.49400541670624L162.8151945933349,121.81701436209377L165.68165928687952,127.12327246989375L168.6436728035423,134.06890930460625L171.51013749708693,138.08530202293124L174.4721510137497,133.398457009575L177.4341645304125,115.259066419725L180.30062922395712,108.73674423144377L183.2626427406199,99.87965453774999L186.12910743416452,101.47711289925002L189.0911209508273,113.91002792293125L192.0531344674901,106.91540239659375L194.7285015147984,100.87913750619373L197.69051503146122,97.90827969948751L200.55697972500582,108.06802555556249L203.51899324166862,115.74519451994999L206.38545793521322,115.52685089221873L209.347471451876,118.68096642427503L212.3094849685388,110.37945153590627L215.17594966208344,104.84910555389999L218.13796317874622,98.06861933720623L221.00442787229085,101.4212164674L223.96644138895363,112.04360871451877L226.9284549056164,112.16180418723752L229.6038219529247,103.55088221169376L232.56583546958754,102.98819725484998L235.4323001631321,111.61479208756876L238.39431367979495,120.55370740199999L241.26077837333958,119.46148357657498L244.22279189000236,122.2400307554625L247.1848054066651,120.01193782173749L250.05127010020976,112.16275525591877L253.0132836168725,111.5452102790625L255.87974831041717,118.71064698969377L258.84176182707995,126.45067939528127L261.8037753437427,120.96090249628125L264.5746912141692,113.35217928656252L267.53670473083196,112.69154152621874L270.4031694243766,129.75528482894998L273.3651829410394,136.67860318222503L276.231647634584,140.15271666838123L279.1936611512468,141.87747823584377L282.1556746679096,137.88623657302497L285.0221393614542,134.35467949196251L287.98415287811696,130.88682995199375L290.8506175716616,138.42123549011248L293.8126310883244,143.7829301496375L296.7746446049872,142.54302020829374L299.4500116522955,137.29903978738125L302.4120251689583,131.05452240069374L305.2784898625029,134.04608369533122L308.24050337916566,144.72054073589996L311.1069680727103,150.89642773130626L314.0689815893731,153.4049126749125L317.0309951060359,150.8703980825625L319.8974597995805,143.96360408345623L322.85947331624334,140.758780945575L325.72593800978797,143.74134492883127L328.6879515264507,153.98465616110624L331.6499650431135,150.89936457403124L334.3253320904218,151.15544627146875L337.2873456070846,142.36761669757502L340.15381030062923,147.5152300596L343.115823817292,154.81777211718747L345.9822885108366,159.7468474447875L348.9443020274994,163.7325891126L351.9063155441622,157.68858092895L354.77278023770685,151.0358025001125L357.7347937543696,150.34821464514377L360.60125844791423,148.72874595433126L363.56327196457704,158.59079530008748L366.5252854812398,156.24922804561876L369.2006525285481,156.61874696152498L372.1626660452109,160.6646763761625L375.02913073875555,159.355728551925L377.9911442554183,165.66872126015625L380.857608948963,164.75856742051874L383.81962246562574,173.7658797006L386.7816359822885,165.5079783202125L389.6481006758331,161.18014253703748L392.6101141924959,168.3062328282L395.47657888604056,170.585483745225L398.4385924027033,171.6912134237625L401.4006059193661,171.14989128065625L404.1715217897926,166.611087953325L407.13353530645537,169.14163718709375L410,173.74856306825626" data-legend="java" style="stroke: rgb(140, 86, 75); fill: none;"></path></g></g><g transform="translate(20, 150)"><text transform="rotate(-90)" x="-50" y="0" dy="1em" class="axis-label y-axis-label" style="text-anchor: middle; font-weight: bold;">% of Stack Overflow questions that month</text></g><g class="legend" transform="translate(530, 30)" style="font-size: 12px;"><text class="legend-title" style="font-weight: bold;">Tag</text><g class="legend-items" transform="translate(0,20)"><text y="0em" x="1em">python</text><text y="1em" x="1em">java</text><text y="2em" x="1em">scala</text><text y="3em" x="1em">go</text><text y="4em" x="1em">haskell</text><text y="5em" x="1em">lisp</text><circle cy="-0.25em" cx="0" r="0.4em" style="fill: rgb(255, 127, 14);"></circle><circle cy="0.75em" cx="0" r="0.4em" style="fill: rgb(140, 86, 75);"></circle><circle cy="1.75em" cx="0" r="0.4em" style="fill: rgb(44, 160, 44);"></circle><circle cy="2.75em" cx="0" r="0.4em" style="fill: rgb(31, 119, 180);"></circle><circle cy="3.75em" cx="0" r="0.4em" style="fill: rgb(214, 39, 40);"></circle><circle cy="4.75em" cx="0" r="0.4em" style="fill: rgb(148, 103, 189);"></circle></g><rect class="legend-box"></rect></g></svg>
        