
            <svg id="trend-chart" width="660" height="400" title="Stack Overflow Trends Chart" version="1.1" xmlns="http://www.w3.org/2000/svg"><g></g><g class="chart-area" transform="translate(100, 20)"><g transform="translate(0,300)" fill="none" font-size="10" font-family="sans-serif" text-anchor="middle"><path class="domain" stroke="#000" d="M0.5,6V0.5H410.5V6"></path><g class="tick" opacity="1" transform="translate(14.618969937077603,0)"><line stroke="#000" y2="6" x1="0.5" x2="0.5"></line><text fill="#000" y="9" x="0.5" dy="0.71em" style="font-size: 12px;">2009</text></g><g class="tick" opacity="1" transform="translate(49.49429037520392,0)"><line stroke="#000" y2="6" x1="0.5" x2="0.5"></line><text fill="#000" y="9" x="0.5" dy="0.71em" style="font-size: 12px;">2010</text></g><g class="tick" opacity="1" transform="translate(84.36961081333023,0)"><line stroke="#000" y2="6" x1="0.5" x2="0.5"></line><text fill="#000" y="9" x="0.5" dy="0.71em" style="font-size: 12px;">2011</text></g><g class="tick" opacity="1" transform="translate(119.24493125145653,0)"><line stroke="#000" y2="6" x1="0.5" x2="0.5"></line><text fill="#000" y="9" x="0.5" dy="0.71em" style="font-size: 12px;">2012</text></g><g class="tick" opacity="1" transform="translate(154.215800512701,0)"><line stroke="#000" y2="6" x1="0.5" x2="0.5"></line><text fill="#000" y="9" x="0.5" dy="0.71em" style="font-size: 12px;">2013</text></g><g class="tick" opacity="1" transform="translate(189.0911209508273,0)"><line stroke="#000" y2="6" x1="0.5" x2="0.5"></line><text fill="#000" y="9" x="0.5" dy="0.71em" style="font-size: 12px;">2014</text></g><g class="tick" opacity="1" transform="translate(223.96644138895363,0)"><line stroke="#000" y2="6" x1="0.5" x2="0.5"></line><text fill="#000" y="9" x="0.5" dy="0.71em" style="font-size: 12px;">2015</text></g><g class="tick" opacity="1" transform="translate(258.84176182707995,0)"><line stroke="#000" y2="6" x1="0.5" x2="0.5"></line><text fill="#000" y="9" x="0.5" dy="0.71em" style="font-size: 12px;">2016</text></g><g class="tick" opacity="1" transform="translate(293.8126310883244,0)"><line stroke="#000" y2="6" x1="0.5" x2="0.5"></line><text fill="#000" y="9" x="0.5" dy="0.71em" style="font-size: 12px;">2017</text></g><g class="tick" opacity="1" transform="translate(328.6879515264507,0)"><line stroke="#000" y2="6" x1="0.5" x2="0.5"></line><text fill="#000" y="9" x="0.5" dy="0.71em" style="font-size: 12px;">2018</text></g><g class="tick" opacity="1" transform="translate(363.56327196457704,0)"><line stroke="#000" y2="6" x1="0.5" x2="0.5"></line><text fill="#000" y="9" x="0.5" dy="0.71em" style="font-size: 12px;">2019</text></g><g class="tick" opacity="1" transform="translate(398.4385924027033,0)"><line stroke="#000" y2="6" x1="0.5" x2="0.5"></line><text fill="#000" y="9" x="0.5" dy="0.71em" style="font-size: 12px;">2020</text></g></g><g class="grid-lines" transform="translate(0,300)" fill="none" font-size="10" font-family="sans-serif" text-anchor="middle"><path class="domain" stroke="#000" d="M0.5,-300V0.5H410.5V-300"></path><g class="tick" opacity="1" transform="translate(14.618969937077603,0)"><line stroke="#000" y2="-300" x1="0.5" x2="0.5" style="stroke: #ccc; fill: none;"></line></g><g class="tick" opacity="1" transform="translate(49.49429037520392,0)"><line stroke="#000" y2="-300" x1="0.5" x2="0.5" style="stroke: #ccc; fill: none;"></line></g><g class="tick" opacity="1" transform="translate(84.36961081333023,0)"><line stroke="#000" y2="-300" x1="0.5" x2="0.5" style="stroke: #ccc; fill: none;"></line></g><g class="tick" opacity="1" transform="translate(119.24493125145653,0)"><line stroke="#000" y2="-300" x1="0.5" x2="0.5" style="stroke: #ccc; fill: none;"></line></g><g class="tick" opacity="1" transform="translate(154.215800512701,0)"><line stroke="#000" y2="-300" x1="0.5" x2="0.5" style="stroke: #ccc; fill: none;"></line></g><g class="tick" opacity="1" transform="translate(189.0911209508273,0)"><line stroke="#000" y2="-300" x1="0.5" x2="0.5" style="stroke: #ccc; fill: none;"></line></g><g class="tick" opacity="1" transform="translate(223.96644138895363,0)"><line stroke="#000" y2="-300" x1="0.5" x2="0.5" style="stroke: #ccc; fill: none;"></line></g><g class="tick" opacity="1" transform="translate(258.84176182707995,0)"><line stroke="#000" y2="-300" x1="0.5" x2="0.5" style="stroke: #ccc; fill: none;"></line></g><g class="tick" opacity="1" transform="translate(293.8126310883244,0)"><line stroke="#000" y2="-300" x1="0.5" x2="0.5" style="stroke: #ccc; fill: none;"></line></g><g class="tick" opacity="1" transform="translate(328.6879515264507,0)"><line stroke="#000" y2="-300" x1="0.5" x2="0.5" style="stroke: #ccc; fill: none;"></line></g><g class="tick" opacity="1" transform="translate(363.56327196457704,0)"><line stroke="#000" y2="-300" x1="0.5" x2="0.5" style="stroke: #ccc; fill: none;"></line></g><g class="tick" opacity="1" transform="translate(398.4385924027033,0)"><line stroke="#000" y2="-300" x1="0.5" x2="0.5" style="stroke: #ccc; fill: none;"></line></g></g><text x="205" y="360" class="axis-label x-axis-label" style="text-anchor: middle; font-weight: bold;">Year</text><g fill="none" font-size="10" font-family="sans-serif" text-anchor="end"><path class="domain" stroke="#000" d="M-6,300.5H0.5V0.5H-6"></path><g class="tick" opacity="1" transform="translate(0,300)"><line stroke="#000" x2="-6" y1="0.5" y2="0.5"></line><text fill="#000" x="-9" y="0.5" dy="0.32em" style="font-size: 12px;">0.00%</text></g><g class="tick" opacity="1" transform="translate(0,262.5)"><line stroke="#000" x2="-6" y1="0.5" y2="0.5"></line><text fill="#000" x="-9" y="0.5" dy="0.32em" style="font-size: 12px;">2.00%</text></g><g class="tick" opacity="1" transform="translate(0,225)"><line stroke="#000" x2="-6" y1="0.5" y2="0.5"></line><text fill="#000" x="-9" y="0.5" dy="0.32em" style="font-size: 12px;">4.00%</text></g><g class="tick" opacity="1" transform="translate(0,187.5)"><line stroke="#000" x2="-6" y1="0.5" y2="0.5"></line><text fill="#000" x="-9" y="0.5" dy="0.32em" style="font-size: 12px;">6.00%</text></g><g class="tick" opacity="1" transform="translate(0,150)"><line stroke="#000" x2="-6" y1="0.5" y2="0.5"></line><text fill="#000" x="-9" y="0.5" dy="0.32em" style="font-size: 12px;">8.00%</text></g><g class="tick" opacity="1" transform="translate(0,112.5)"><line stroke="#000" x2="-6" y1="0.5" y2="0.5"></line><text fill="#000" x="-9" y="0.5" dy="0.32em" style="font-size: 12px;">10.00%</text></g><g class="tick" opacity="1" transform="translate(0,75)"><line stroke="#000" x2="-6" y1="0.5" y2="0.5"></line><text fill="#000" x="-9" y="0.5" dy="0.32em" style="font-size: 12px;">12.00%</text></g><g class="tick" opacity="1" transform="translate(0,37.49999999999994)"><line stroke="#000" x2="-6" y1="0.5" y2="0.5"></line><text fill="#000" x="-9" y="0.5" dy="0.32em" style="font-size: 12px;">14.00%</text></g><g class="tick" opacity="1" transform="translate(0,0)"><line stroke="#000" x2="-6" y1="0.5" y2="0.5"></line><text fill="#000" x="-9" y="0.5" dy="0.32em" style="font-size: 12px;">16.00%</text></g></g><g class="grid-lines" fill="none" font-size="10" font-family="sans-serif" text-anchor="end"><path class="domain" stroke="#000" d="M410,300.5H0.5V0.5H410"></path><g class="tick" opacity="1" transform="translate(0,300)"><line stroke="#000" x2="410" y1="0.5" y2="0.5" style="stroke: #ccc; fill: none;"></line></g><g class="tick" opacity="1" transform="translate(0,262.5)"><line stroke="#000" x2="410" y1="0.5" y2="0.5" style="stroke: #ccc; fill: none;"></line></g><g class="tick" opacity="1" transform="translate(0,225)"><line stroke="#000" x2="410" y1="0.5" y2="0.5" style="stroke: #ccc; fill: none;"></line></g><g class="tick" opacity="1" transform="translate(0,187.5)"><line stroke="#000" x2="410" y1="0.5" y2="0.5" style="stroke: #ccc; fill: none;"></line></g><g class="tick" opacity="1" transform="translate(0,150)"><line stroke="#000" x2="410" y1="0.5" y2="0.5" style="stroke: #ccc; fill: none;"></line></g><g class="tick" opacity="1" transform="translate(0,112.5)"><line stroke="#000" x2="410" y1="0.5" y2="0.5" style="stroke: #ccc; fill: none;"></line></g><g class="tick" opacity="1" transform="translate(0,75)"><line stroke="#000" x2="410" y1="0.5" y2="0.5" style="stroke: #ccc; fill: none;"></line></g><g class="tick" opacity="1" transform="translate(0,37.49999999999994)"><line stroke="#000" x2="410" y1="0.5" y2="0.5" style="stroke: #ccc; fill: none;"></line></g><g class="tick" opacity="1" transform="translate(0,0)"><line stroke="#000" x2="410" y1="0.5" y2="0.5" style="stroke: #ccc; fill: none;"></line></g></g><g class="lines"><path class="line" d="M2.9620135166627826,300L5.828478210207411,300L8.790491726870194,300L11.656956420414822,300L14.618969937077603,300L17.580983453740387,300L20.256350501048708,300L23.21836401771149,300L26.08482871125612,300L29.0468422279189,300L31.913306921463526,300L34.875320438126316,300L37.837333954789095,300L40.70379864833372,300L43.66581216499651,296.7557151845813L46.53227685854113,299.44932450474374L49.49429037520392,299.3697478991625L52.4563038918667,299.7049965161625L55.13167093917502,299.7109325316562L58.0936844558378,299.6228805889125L60.96014914938243,299.3828534918438L63.92216266604521,299.4923285198625L66.78862735958984,299.75191439394376L69.75064087625263,299.6150626954313L72.7126543929154,299.7226240179L75.57911908646004,299.6158634601563L78.54113260312282,299.56704958726874L81.40759729666745,299.5122832370063L84.36961081333023,299.64692368531877L87.33162432999302,299.6368873987875L90.00699137730133,299.94408048435L92.96900489396411,299.86247760350625L95.83546958750874,299.30685996324377L98.79748310417152,299.35569615136876L101.66394779771615,299.5147515528L104.62596131437893,299.299837562325L107.58797483104172,299.52182442375L110.45443952458633,299.2599828316125L113.41645304124913,298.8631874845125L116.28291773479377,299.06016849493125L119.24493125145653,299.402670868425L122.20694476811931,299.5309171024688L124.9778606385458,299.3410525213875L127.93987415520859,298.99786210584375L130.8063388487532,299.03805402511875L133.76835236541598,298.96811080198125L136.6348170589606,298.9945103794875L139.5968305756234,299.0428586621438L142.5588440922862,298.15098576165L145.4253087858308,298.73214118340627L148.3873223024936,298.67835139588124L151.2537869960382,298.429741347375L154.215800512701,298.79596780348123L157.1778140293638,298.57046507536876L159.85318107667212,298.6307336680125L162.8151945933349,298.63498969145627L165.68165928687952,298.3804405201875L168.6436728035423,297.91490275865624L171.51013749708693,297.87805913143126L174.4721510137497,297.6974128762875L177.4341645304125,297.31898834986873L180.30062922395712,297.844921061775L183.2626427406199,297.770069375625L186.12910743416452,297.2836092985125L189.0911209508273,296.995510122075L192.0531344674901,297.95746207190626L194.7285015147984,297.7033868589375L197.69051503146122,296.71145413985624L200.55697972500582,297.0290810523375L203.51899324166862,296.68693363438126L206.38545793521322,295.20519781905L209.347471451876,295.36341655524376L212.3094849685388,295.58078151024375L215.17594966208344,295.850619409725L218.13796317874622,296.1993091288688L221.00442787229085,295.76722214004377L223.96644138895363,294.69049742131875L226.9284549056164,295.71395405596877L229.6038219529247,295.35869043159374L232.56583546958754,296.12672893839374L235.4323001631321,295.98921815413127L238.39431367979495,295.75488321924377L241.26077837333958,295.4956804730812L244.22279189000236,295.3431223414125L247.1848054066651,295.49156732593127L250.05127010020976,295.66832349646876L253.0132836168725,295.39504072644377L255.87974831041717,295.35183482503123L258.84176182707995,294.8442463452375L261.8037753437427,294.57942180500623L264.5746912141692,294.4402776808875L267.53670473083196,294.2250229849875L270.4031694243766,294.21971835470623L273.3651829410394,294.3851558110875L276.231647634584,294.26566390396874L279.1936611512468,294.01900626898123L282.1556746679096,294.34614775400627L285.0221393614542,294.2643438036375L287.98415287811696,294.85185993613123L290.8506175716616,294.1952625276937L293.8126310883244,293.9871326775375L296.7746446049872,293.99743085731876L299.4500116522955,293.8363042305375L302.4120251689583,294.61115807270625L305.2784898625029,294.0304346653125L308.24050337916566,293.90147493958125L311.1069680727103,293.08986120913124L314.0689815893731,293.4570013277625L317.0309951060359,293.6664451992375L319.8974597995805,293.1313803817313L322.85947331624334,292.68254535705L325.72593800978797,293.1192184124625L328.6879515264507,293.5700961580875L331.6499650431135,292.7971899174L334.3253320904218,293.3028690960375L337.2873456070846,292.7228708003625L340.15381030062923,292.83976714396874L343.115823817292,291.6968746938563L345.9822885108366,291.7512088745625L348.9443020274994,291.52500619831875L351.9063155441622,291.09900106655624L354.77278023770685,290.6199455847187L357.7347937543696,290.9172336057375L360.60125844791423,290.583830970525L363.56327196457704,291.583836929175L366.5252854812398,291.817283544L369.2006525285481,291.468879719775L372.1626660452109,291.95599997385L375.02913073875555,291.49569645770623L377.9911442554183,293.077976714625L380.857608948963,292.6309392641813L383.81962246562574,291.8662052107125L386.7816359822885,292.02878638569376L389.6481006758331,292.8183916567125L392.6101141924959,292.8612776693063L395.47657888604056,291.91159273408124L398.4385924027033,292.38395227425L401.4006059193661,292.089120404475L404.1715217897926,292.7253342739125L407.13353530645537,292.47144048129377L410,292.78137736441874" data-legend="go" style="stroke: rgb(31, 119, 180); fill: none;"></path><path class="line" d="M2.9620135166627826,226.9620526089L5.828478210207411,233.80978749915L8.790491726870194,232.53999840802499L11.656956420414822,230.92105263159374L14.618969937077603,224.804563365975L17.580983453740387,232.2133593481125L20.256350501048708,229.26447381399376L23.21836401771149,231.90201456541877L26.08482871125612,226.64606236063125L29.0468422279189,230.07226980729376L31.913306921463526,232.18743191510623L34.875320438126316,234.166923551175L37.837333954789095,233.197359978L40.70379864833372,226.05531194495626L43.66581216499651,223.36606019296875L46.53227685854113,220.4524216372125L49.49429037520392,218.10924369748125L52.4563038918667,221.36049987639376L55.13167093917502,225.13152569810626L58.0936844558378,231.4774030048875L60.96014914938243,227.0315010939375L63.92216266604521,225.27075812274376L66.78862735958984,219.49622082928124L69.75064087625263,226.12164808440002L72.7126543929154,230.6251849173375L75.57911908646004,221.074715541975L78.54113260312282,229.2937857184125L81.40759729666745,232.69508670521247L84.36961081333023,231.479656527375L87.33162432999302,231.5305801329L90.00699137730133,230.02604606775L92.96900489396411,234.22500235753125L95.83546958750874,233.96436136201874L98.79748310417152,234.16730675938123L101.66394779771615,231.52397873866875L104.62596131437893,232.83691816501874L107.58797483104172,235.24399215301875L110.45443952458633,232.78794068023126L113.41645304124913,233.20365249825L116.28291773479377,234.44675252068123L119.24493125145653,232.00134318335625L122.20694476811931,231.92245303119375L124.9778606385458,229.1561359693875L127.93987415520859,228.35440243535623L130.8063388487532,228.73235038256252L133.76835236541598,224.17047573915L136.6348170589606,224.07230352380626L139.5968305756234,221.9398064447625L142.5588440922862,225.18603927875625L145.4253087858308,222.93677945450625L148.3873223024936,218.62965372808125L151.2537869960382,219.9168087156375L154.215800512701,221.41603723201877L157.1778140293638,217.29468457374375L159.85318107667212,217.40197346859375L162.8151945933349,213.03246322117502L165.68165928687952,211.79024305389373L168.6436728035423,209.701072877325L171.51013749708693,208.31093506861873L174.4721510137497,212.27032886968124L177.4341645304125,209.62615159066877L180.30062922395712,203.18409524636252L183.2626427406199,198.87795554298748L186.12910743416452,203.87372405092498L189.0911209508273,202.18055232375002L192.0531344674901,200.97178308579373L194.7285015147984,196.72445926019998L197.69051503146122,196.04541142081877L200.55697972500582,201.29121796359377L203.51899324166862,196.9728389911125L206.38545793521322,194.60940316331252L209.347471451876,195.23611085671877L212.3094849685388,200.70286617885L215.17594966208344,195.70212286501874L218.13796317874622,191.88271382821875L221.00442787229085,190.490439469275L223.96644138895363,190.0368125512125L226.9284549056164,185.83938042825L229.6038219529247,184.65009737844377L232.56583546958754,186.15951140651248L235.4323001631321,186.04720568694376L238.39431367979495,181.41706803935625L241.26077837333958,181.0108924969125L244.22279189000236,183.23579358451875L247.1848054066651,183.5533222704L250.05127010020976,173.4423466310625L253.0132836168725,169.67754019130624L255.87974831041717,172.4918820777375L258.84176182707995,171.22049994180003L261.8037753437427,167.065820354175L264.5746912141692,168.04302757873126L267.53670473083196,168.66955255901252L270.4031694243766,169.02339438832502L273.3651829410394,167.49376810250624L276.231647634584,162.83425423786875L279.1936611512468,165.541861418175L282.1556746679096,163.7025619063875L285.0221393614542,154.2088740178875L287.98415287811696,146.686665671025L290.8506175716616,147.76232605175625L293.8126310883244,147.04034495133752L296.7746446049872,140.35536933583126L299.4500116522955,139.09756499671872L302.4120251689583,134.182163989875L305.2784898625029,135.8673070177875L308.24050337916566,129.77068416418123L311.1069680727103,121.79613200255628L314.0689815893731,124.23271371669372L317.0309951060359,119.58682868977499L319.8974597995805,111.07412339103752L322.85947331624334,109.51157386719376L325.72593800978797,105.1051071844125L328.6879515264507,107.91545500796252L331.6499650431135,97.70463874126872L334.3253320904218,103.60909440515624L337.2873456070846,101.90166343239378L340.15381030062923,100.9906304312625L343.115823817292,93.47506613109374L345.9822885108366,86.76400872286874L348.9443020274994,86.89741323959998L351.9063155441622,88.75485350604376L354.77278023770685,84.44681971488751L357.7347937543696,70.77965862888749L360.60125844791423,73.12873227881252L363.56327196457704,83.40051683066247L366.5252854812398,71.527234550625L369.2006525285481,64.36578327371251L372.1626660452109,54.057151639218745L375.02913073875555,62.24006339270625L377.9911442554183,63.13472262988128L380.857608948963,59.259601076831274L383.81962246562574,57.99288817398747L386.7816359822885,72.19858626440626L389.6481006758331,52.98215759945623L392.6101141924959,44.69077776435L395.47657888604056,49.34464411008753L398.4385924027033,47.417712687656234L401.4006059193661,45.758030205712544L404.1715217897926,31.21813576170001L407.13353530645537,22.78677812578121L410,12.368063538525007" data-legend="python" style="stroke: rgb(255, 127, 14); fill: none;"></path></g></g><g transform="translate(20, 150)"><text transform="rotate(-90)" x="-50" y="0" dy="1em" class="axis-label y-axis-label" style="text-anchor: middle; font-weight: bold;">% of Stack Overflow questions that month</text></g><g class="legend" transform="translate(530, 30)" style="font-size: 12px;"><text class="legend-title" style="font-weight: bold;">Tag</text><g class="legend-items" transform="translate(0,20)"><text y="0em" x="1em">python</text><text y="1em" x="1em">go</text><circle cy="-0.25em" cx="0" r="0.4em" style="fill: rgb(255, 127, 14);"></circle><circle cy="0.75em" cx="0" r="0.4em" style="fill: rgb(31, 119, 180);"></circle></g><rect class="legend-box"></rect></g></svg>
        