
            <svg id="trend-chart" width="660" height="400" title="Stack Overflow Trends Chart" version="1.1" xmlns="http://www.w3.org/2000/svg"><g></g><g class="chart-area" transform="translate(100, 20)"><g transform="translate(0,300)" fill="none" font-size="10" font-family="sans-serif" text-anchor="middle"><path class="domain" stroke="#000" d="M0.5,6V0.5H410.5V6"></path><g class="tick" opacity="1" transform="translate(14.618969937077603,0)"><line stroke="#000" y2="6" x1="0.5" x2="0.5"></line><text fill="#000" y="9" x="0.5" dy="0.71em" style="font-size: 12px;">2009</text></g><g class="tick" opacity="1" transform="translate(49.49429037520392,0)"><line stroke="#000" y2="6" x1="0.5" x2="0.5"></line><text fill="#000" y="9" x="0.5" dy="0.71em" style="font-size: 12px;">2010</text></g><g class="tick" opacity="1" transform="translate(84.36961081333023,0)"><line stroke="#000" y2="6" x1="0.5" x2="0.5"></line><text fill="#000" y="9" x="0.5" dy="0.71em" style="font-size: 12px;">2011</text></g><g class="tick" opacity="1" transform="translate(119.24493125145653,0)"><line stroke="#000" y2="6" x1="0.5" x2="0.5"></line><text fill="#000" y="9" x="0.5" dy="0.71em" style="font-size: 12px;">2012</text></g><g class="tick" opacity="1" transform="translate(154.215800512701,0)"><line stroke="#000" y2="6" x1="0.5" x2="0.5"></line><text fill="#000" y="9" x="0.5" dy="0.71em" style="font-size: 12px;">2013</text></g><g class="tick" opacity="1" transform="translate(189.0911209508273,0)"><line stroke="#000" y2="6" x1="0.5" x2="0.5"></line><text fill="#000" y="9" x="0.5" dy="0.71em" style="font-size: 12px;">2014</text></g><g class="tick" opacity="1" transform="translate(223.96644138895363,0)"><line stroke="#000" y2="6" x1="0.5" x2="0.5"></line><text fill="#000" y="9" x="0.5" dy="0.71em" style="font-size: 12px;">2015</text></g><g class="tick" opacity="1" transform="translate(258.84176182707995,0)"><line stroke="#000" y2="6" x1="0.5" x2="0.5"></line><text fill="#000" y="9" x="0.5" dy="0.71em" style="font-size: 12px;">2016</text></g><g class="tick" opacity="1" transform="translate(293.8126310883244,0)"><line stroke="#000" y2="6" x1="0.5" x2="0.5"></line><text fill="#000" y="9" x="0.5" dy="0.71em" style="font-size: 12px;">2017</text></g><g class="tick" opacity="1" transform="translate(328.6879515264507,0)"><line stroke="#000" y2="6" x1="0.5" x2="0.5"></line><text fill="#000" y="9" x="0.5" dy="0.71em" style="font-size: 12px;">2018</text></g><g class="tick" opacity="1" transform="translate(363.56327196457704,0)"><line stroke="#000" y2="6" x1="0.5" x2="0.5"></line><text fill="#000" y="9" x="0.5" dy="0.71em" style="font-size: 12px;">2019</text></g><g class="tick" opacity="1" transform="translate(398.4385924027033,0)"><line stroke="#000" y2="6" x1="0.5" x2="0.5"></line><text fill="#000" y="9" x="0.5" dy="0.71em" style="font-size: 12px;">2020</text></g></g><g class="grid-lines" transform="translate(0,300)" fill="none" font-size="10" font-family="sans-serif" text-anchor="middle"><path class="domain" stroke="#000" d="M0.5,-300V0.5H410.5V-300"></path><g class="tick" opacity="1" transform="translate(14.618969937077603,0)"><line stroke="#000" y2="-300" x1="0.5" x2="0.5" style="stroke: #ccc; fill: none;"></line></g><g class="tick" opacity="1" transform="translate(49.49429037520392,0)"><line stroke="#000" y2="-300" x1="0.5" x2="0.5" style="stroke: #ccc; fill: none;"></line></g><g class="tick" opacity="1" transform="translate(84.36961081333023,0)"><line stroke="#000" y2="-300" x1="0.5" x2="0.5" style="stroke: #ccc; fill: none;"></line></g><g class="tick" opacity="1" transform="translate(119.24493125145653,0)"><line stroke="#000" y2="-300" x1="0.5" x2="0.5" style="stroke: #ccc; fill: none;"></line></g><g class="tick" opacity="1" transform="translate(154.215800512701,0)"><line stroke="#000" y2="-300" x1="0.5" x2="0.5" style="stroke: #ccc; fill: none;"></line></g><g class="tick" opacity="1" transform="translate(189.0911209508273,0)"><line stroke="#000" y2="-300" x1="0.5" x2="0.5" style="stroke: #ccc; fill: none;"></line></g><g class="tick" opacity="1" transform="translate(223.96644138895363,0)"><line stroke="#000" y2="-300" x1="0.5" x2="0.5" style="stroke: #ccc; fill: none;"></line></g><g class="tick" opacity="1" transform="translate(258.84176182707995,0)"><line stroke="#000" y2="-300" x1="0.5" x2="0.5" style="stroke: #ccc; fill: none;"></line></g><g class="tick" opacity="1" transform="translate(293.8126310883244,0)"><line stroke="#000" y2="-300" x1="0.5" x2="0.5" style="stroke: #ccc; fill: none;"></line></g><g class="tick" opacity="1" transform="translate(328.6879515264507,0)"><line stroke="#000" y2="-300" x1="0.5" x2="0.5" style="stroke: #ccc; fill: none;"></line></g><g class="tick" opacity="1" transform="translate(363.56327196457704,0)"><line stroke="#000" y2="-300" x1="0.5" x2="0.5" style="stroke: #ccc; fill: none;"></line></g><g class="tick" opacity="1" transform="translate(398.4385924027033,0)"><line stroke="#000" y2="-300" x1="0.5" x2="0.5" style="stroke: #ccc; fill: none;"></line></g></g><text x="205" y="360" class="axis-label x-axis-label" style="text-anchor: middle; font-weight: bold;">Year</text><g fill="none" font-size="10" font-family="sans-serif" text-anchor="end"><path class="domain" stroke="#000" d="M-6,300.5H0.5V0.5H-6"></path><g class="tick" opacity="1" transform="translate(0,300)"><line stroke="#000" x2="-6" y1="0.5" y2="0.5"></line><text fill="#000" x="-9" y="0.5" dy="0.32em" style="font-size: 12px;">0.00%</text></g><g class="tick" opacity="1" transform="translate(0,275)"><line stroke="#000" x2="-6" y1="0.5" y2="0.5"></line><text fill="#000" x="-9" y="0.5" dy="0.32em" style="font-size: 12px;">0.05%</text></g><g class="tick" opacity="1" transform="translate(0,250)"><line stroke="#000" x2="-6" y1="0.5" y2="0.5"></line><text fill="#000" x="-9" y="0.5" dy="0.32em" style="font-size: 12px;">0.10%</text></g><g class="tick" opacity="1" transform="translate(0,225)"><line stroke="#000" x2="-6" y1="0.5" y2="0.5"></line><text fill="#000" x="-9" y="0.5" dy="0.32em" style="font-size: 12px;">0.15%</text></g><g class="tick" opacity="1" transform="translate(0,200)"><line stroke="#000" x2="-6" y1="0.5" y2="0.5"></line><text fill="#000" x="-9" y="0.5" dy="0.32em" style="font-size: 12px;">0.20%</text></g><g class="tick" opacity="1" transform="translate(0,175)"><line stroke="#000" x2="-6" y1="0.5" y2="0.5"></line><text fill="#000" x="-9" y="0.5" dy="0.32em" style="font-size: 12px;">0.25%</text></g><g class="tick" opacity="1" transform="translate(0,150)"><line stroke="#000" x2="-6" y1="0.5" y2="0.5"></line><text fill="#000" x="-9" y="0.5" dy="0.32em" style="font-size: 12px;">0.30%</text></g><g class="tick" opacity="1" transform="translate(0,125)"><line stroke="#000" x2="-6" y1="0.5" y2="0.5"></line><text fill="#000" x="-9" y="0.5" dy="0.32em" style="font-size: 12px;">0.35%</text></g><g class="tick" opacity="1" transform="translate(0,100)"><line stroke="#000" x2="-6" y1="0.5" y2="0.5"></line><text fill="#000" x="-9" y="0.5" dy="0.32em" style="font-size: 12px;">0.40%</text></g><g class="tick" opacity="1" transform="translate(0,75.00000000000003)"><line stroke="#000" x2="-6" y1="0.5" y2="0.5"></line><text fill="#000" x="-9" y="0.5" dy="0.32em" style="font-size: 12px;">0.45%</text></g><g class="tick" opacity="1" transform="translate(0,50)"><line stroke="#000" x2="-6" y1="0.5" y2="0.5"></line><text fill="#000" x="-9" y="0.5" dy="0.32em" style="font-size: 12px;">0.50%</text></g><g class="tick" opacity="1" transform="translate(0,25)"><line stroke="#000" x2="-6" y1="0.5" y2="0.5"></line><text fill="#000" x="-9" y="0.5" dy="0.32em" style="font-size: 12px;">0.55%</text></g><g class="tick" opacity="1" transform="translate(0,0)"><line stroke="#000" x2="-6" y1="0.5" y2="0.5"></line><text fill="#000" x="-9" y="0.5" dy="0.32em" style="font-size: 12px;">0.60%</text></g></g><g class="grid-lines" fill="none" font-size="10" font-family="sans-serif" text-anchor="end"><path class="domain" stroke="#000" d="M410,300.5H0.5V0.5H410"></path><g class="tick" opacity="1" transform="translate(0,300)"><line stroke="#000" x2="410" y1="0.5" y2="0.5" style="stroke: #ccc; fill: none;"></line></g><g class="tick" opacity="1" transform="translate(0,275)"><line stroke="#000" x2="410" y1="0.5" y2="0.5" style="stroke: #ccc; fill: none;"></line></g><g class="tick" opacity="1" transform="translate(0,250)"><line stroke="#000" x2="410" y1="0.5" y2="0.5" style="stroke: #ccc; fill: none;"></line></g><g class="tick" opacity="1" transform="translate(0,225)"><line stroke="#000" x2="410" y1="0.5" y2="0.5" style="stroke: #ccc; fill: none;"></line></g><g class="tick" opacity="1" transform="translate(0,200)"><line stroke="#000" x2="410" y1="0.5" y2="0.5" style="stroke: #ccc; fill: none;"></line></g><g class="tick" opacity="1" transform="translate(0,175)"><line stroke="#000" x2="410" y1="0.5" y2="0.5" style="stroke: #ccc; fill: none;"></line></g><g class="tick" opacity="1" transform="translate(0,150)"><line stroke="#000" x2="410" y1="0.5" y2="0.5" style="stroke: #ccc; fill: none;"></line></g><g class="tick" opacity="1" transform="translate(0,125)"><line stroke="#000" x2="410" y1="0.5" y2="0.5" style="stroke: #ccc; fill: none;"></line></g><g class="tick" opacity="1" transform="translate(0,100)"><line stroke="#000" x2="410" y1="0.5" y2="0.5" style="stroke: #ccc; fill: none;"></line></g><g class="tick" opacity="1" transform="translate(0,75.00000000000003)"><line stroke="#000" x2="410" y1="0.5" y2="0.5" style="stroke: #ccc; fill: none;"></line></g><g class="tick" opacity="1" transform="translate(0,50)"><line stroke="#000" x2="410" y1="0.5" y2="0.5" style="stroke: #ccc; fill: none;"></line></g><g class="tick" opacity="1" transform="translate(0,25)"><line stroke="#000" x2="410" y1="0.5" y2="0.5" style="stroke: #ccc; fill: none;"></line></g><g class="tick" opacity="1" transform="translate(0,0)"><line stroke="#000" x2="410" y1="0.5" y2="0.5" style="stroke: #ccc; fill: none;"></line></g></g><g class="lines"><path class="line" d="M2.9620135166627826,300L5.828478210207411,300L8.790491726870194,300L11.656956420414822,300L14.618969937077603,300L17.580983453740387,300L20.256350501048708,300L23.21836401771149,300L26.08482871125612,300L29.0468422279189,300L31.913306921463526,300L34.875320438126316,300L37.837333954789095,300L40.70379864833372,300L43.66581216499651,213.4857382555L46.53227685854113,285.3153201265L49.49429037520392,283.193277311L52.4563038918667,292.133240431L55.13167093917502,292.2915341775L58.0936844558378,289.943482371L60.96014914938243,283.5427597825L63.92216266604521,286.462093863L66.78862735958984,293.3843838385L69.75064087625263,289.7350052115L72.7126543929154,292.603307144L75.57911908646004,289.7563589375L78.54113260312282,288.4546556605L81.40759729666745,286.9942196535L84.36961081333023,290.5846316085L87.33162432999302,290.316997301L90.00699137730133,298.508812916L92.96900489396411,296.3327360935L95.83546958750874,281.5162656865L98.79748310417152,282.8185640365L101.66394779771615,287.060041408L104.62596131437893,281.329001662L107.58797483104172,287.2486513L110.45443952458633,280.266208843L113.41645304124913,269.684999587L116.28291773479377,274.9378265315L119.24493125145653,284.071223158L122.20694476811931,287.4911227325L124.9778606385458,282.428067237L127.93987415520859,273.2763228225L130.8063388487532,274.3481073365L133.76835236541598,272.4829547195L136.6348170589606,273.186943453L139.5968305756234,274.4762309905L142.5588440922862,250.692953644L145.4253087858308,266.1904315575L148.3873223024936,264.7560372235L151.2537869960382,258.12643593L154.215800512701,267.89247475950003L157.1778140293638,261.87906867649997L159.85318107667212,263.486231147L162.8151945933349,263.5997251055L165.68165928687952,256.811747205L168.6436728035423,244.3974068975L171.51013749708693,243.4149101715L174.4721510137497,238.597676701L177.4341645304125,228.50635599650002L180.30062922395712,242.531228314L183.2626427406199,240.53518335L186.12910743416452,227.562914627L189.0911209508273,219.880269922L192.0531344674901,245.53232191749998L194.7285015147984,238.756982905L197.69051503146122,212.3054437295L200.55697972500582,220.775494729L203.51899324166862,211.65156358349998L206.38545793521322,172.138608508L209.347471451876,176.3577748065L212.3094849685388,182.15417360650002L215.17594966208344,189.349850926L218.13796317874622,198.6482434365L221.00442787229085,187.12592373450002L223.96644138895363,158.4132645685L226.9284549056164,185.7054414925L229.6038219529247,176.2317448425L232.56583546958754,196.7127716905L235.4323001631321,193.0458174435L238.39431367979495,186.7968858465L241.26077837333958,179.8848126155L244.22279189000236,175.81659577099998L247.1848054066651,179.7751286915L250.05127010020976,184.48862657249998L253.0132836168725,177.2010860385L255.87974831041717,176.04892866749998L258.84176182707995,162.51323587299999L261.8037753437427,155.45124813350003L264.5746912141692,151.74073815699998L267.53670473083196,146.00061293299999L270.4031694243766,145.85915612550002L273.3651829410394,150.27082162899998L276.231647634584,147.0843707725L279.1936611512468,140.5068338395L282.1556746679096,149.2306067735L285.0221393614542,147.049168097L287.98415287811696,162.7162649635L290.8506175716616,145.2070007385L293.8126310883244,139.65687140100002L296.7746446049872,139.93148952849998L299.4500116522955,135.63477948099998L302.4120251689583,156.29754860550003L305.2784898625029,140.811591075L308.24050337916566,137.37266505550002L311.1069680727103,115.72963224349999L314.0689815893731,125.520035407L317.0309951060359,131.10520531299997L319.8974597995805,116.83681017950002L322.85947331624334,104.867876188L325.72593800978797,116.512490999L328.6879515264507,128.53589754900003L331.6499650431135,107.925064464L334.3253320904218,121.40984256099998L337.2873456070846,105.943221343L340.15381030062923,109.06045717250001L343.115823817292,78.58332516949997L345.9822885108366,80.03223665499999L348.9443020274994,74.0001652885L351.9063155441622,62.64002844150002L354.77278023770685,49.86521559249999L357.7347937543696,57.792896153000015L360.60125844791423,48.902159213999965L363.56327196457704,75.56898477800002L366.5252854812398,81.79422784000002L369.2006525285481,72.50345919399999L372.1626660452109,85.49333263600002L375.02913073875555,73.21857220550004L377.9911442554183,115.41271239000002L380.857608948963,103.49171371150001L383.81962246562574,83.09880561900002L386.7816359822885,87.4343036185L389.6481006758331,108.49044417899998L392.6101141924959,109.63407118149999L395.47657888604056,84.30913957550001L398.4385924027033,96.90539398000001L401.4006059193661,89.043210786L404.1715217897926,106.008913971L407.13353530645537,99.23841283450002L410,107.50339638450001" data-legend="go" style="stroke: rgb(31, 119, 180); fill: none;"></path></g></g><g transform="translate(20, 150)"><text transform="rotate(-90)" x="-50" y="0" dy="1em" class="axis-label y-axis-label" style="text-anchor: middle; font-weight: bold;">% of Stack Overflow questions that month</text></g><g class="legend" transform="translate(530, 30)" style="font-size: 12px;"><text class="legend-title" style="font-weight: bold;">Tag</text><g class="legend-items" transform="translate(0,20)"><text y="0em" x="1em">go</text><circle cy="-0.25em" cx="0" r="0.4em" style="fill: rgb(31, 119, 180);"></circle></g><rect class="legend-box"></rect></g></svg>
        